<mxfile host="Electron" agent="Mozilla/5.0 (X11; Linux x86_64) AppleWebKit/537.36 (KHTML, like Gecko) draw.io/25.0.1 Chrome/128.0.6613.186 Electron/32.2.6 Safari/537.36" version="25.0.1">
  <diagram name="Page-1" id="9iYUXwXK73A32sQJKiQL">
    <mxGraphModel dx="1302" dy="756" grid="1" gridSize="10" guides="1" tooltips="1" connect="1" arrows="1" fold="1" page="1" pageScale="1" pageWidth="850" pageHeight="1100" math="0" shadow="0">
      <root>
        <mxCell id="0" />
        <mxCell id="1" parent="0" />
        <mxCell id="bwMxLQqh5cNuedBowcRA-16" style="edgeStyle=orthogonalEdgeStyle;rounded=0;orthogonalLoop=1;jettySize=auto;html=1;entryX=0.5;entryY=0;entryDx=0;entryDy=0;" edge="1" parent="1" source="bwMxLQqh5cNuedBowcRA-1" target="bwMxLQqh5cNuedBowcRA-8">
          <mxGeometry relative="1" as="geometry">
            <Array as="points">
              <mxPoint x="390" y="140" />
            </Array>
          </mxGeometry>
        </mxCell>
        <mxCell id="bwMxLQqh5cNuedBowcRA-17" style="edgeStyle=orthogonalEdgeStyle;rounded=0;orthogonalLoop=1;jettySize=auto;html=1;entryX=0.5;entryY=0;entryDx=0;entryDy=0;" edge="1" parent="1" source="bwMxLQqh5cNuedBowcRA-1" target="bwMxLQqh5cNuedBowcRA-7">
          <mxGeometry relative="1" as="geometry">
            <Array as="points">
              <mxPoint x="250" y="140" />
            </Array>
          </mxGeometry>
        </mxCell>
        <mxCell id="bwMxLQqh5cNuedBowcRA-39" value="Зпросы на депозит\ставки" style="edgeLabel;html=1;align=center;verticalAlign=middle;resizable=0;points=[];" vertex="1" connectable="0" parent="bwMxLQqh5cNuedBowcRA-17">
          <mxGeometry x="0.0177" y="-1" relative="1" as="geometry">
            <mxPoint x="73" y="1" as="offset" />
          </mxGeometry>
        </mxCell>
        <mxCell id="bwMxLQqh5cNuedBowcRA-1" value="Клиент" style="shape=umlActor;verticalLabelPosition=bottom;verticalAlign=top;html=1;outlineConnect=0;" vertex="1" parent="1">
          <mxGeometry x="450" y="100" width="30" height="60" as="geometry" />
        </mxCell>
        <mxCell id="bwMxLQqh5cNuedBowcRA-23" style="edgeStyle=orthogonalEdgeStyle;rounded=0;orthogonalLoop=1;jettySize=auto;html=1;entryX=0.75;entryY=1;entryDx=0;entryDy=0;" edge="1" parent="1" source="bwMxLQqh5cNuedBowcRA-2" target="bwMxLQqh5cNuedBowcRA-9">
          <mxGeometry relative="1" as="geometry">
            <Array as="points">
              <mxPoint x="710" y="400" />
              <mxPoint x="590" y="400" />
            </Array>
          </mxGeometry>
        </mxCell>
        <mxCell id="bwMxLQqh5cNuedBowcRA-24" style="edgeStyle=orthogonalEdgeStyle;rounded=0;orthogonalLoop=1;jettySize=auto;html=1;entryX=0.5;entryY=1;entryDx=0;entryDy=0;" edge="1" parent="1" source="bwMxLQqh5cNuedBowcRA-2" target="bwMxLQqh5cNuedBowcRA-10">
          <mxGeometry relative="1" as="geometry" />
        </mxCell>
        <mxCell id="bwMxLQqh5cNuedBowcRA-29" value="Взаимодействие&amp;nbsp;&lt;div&gt;с клиентами&lt;/div&gt;" style="edgeLabel;html=1;align=center;verticalAlign=middle;resizable=0;points=[];" vertex="1" connectable="0" parent="bwMxLQqh5cNuedBowcRA-24">
          <mxGeometry x="-0.0819" y="-5" relative="1" as="geometry">
            <mxPoint as="offset" />
          </mxGeometry>
        </mxCell>
        <mxCell id="bwMxLQqh5cNuedBowcRA-2" value="Оператор КЦ" style="shape=umlActor;verticalLabelPosition=bottom;verticalAlign=top;html=1;outlineConnect=0;" vertex="1" parent="1">
          <mxGeometry x="695" y="550" width="30" height="60" as="geometry" />
        </mxCell>
        <mxCell id="bwMxLQqh5cNuedBowcRA-19" style="edgeStyle=orthogonalEdgeStyle;rounded=0;orthogonalLoop=1;jettySize=auto;html=1;exitX=0.5;exitY=0.5;exitDx=0;exitDy=0;exitPerimeter=0;entryX=0.5;entryY=1;entryDx=0;entryDy=0;" edge="1" parent="1" source="bwMxLQqh5cNuedBowcRA-3" target="bwMxLQqh5cNuedBowcRA-6">
          <mxGeometry relative="1" as="geometry" />
        </mxCell>
        <mxCell id="bwMxLQqh5cNuedBowcRA-28" value="Операции с&amp;nbsp;&lt;div&gt;депозитами\заявками\стаками&lt;div&gt;клиентов&lt;/div&gt;&lt;/div&gt;" style="edgeLabel;html=1;align=center;verticalAlign=middle;resizable=0;points=[];" vertex="1" connectable="0" parent="bwMxLQqh5cNuedBowcRA-19">
          <mxGeometry x="0.152" y="4" relative="1" as="geometry">
            <mxPoint as="offset" />
          </mxGeometry>
        </mxCell>
        <mxCell id="bwMxLQqh5cNuedBowcRA-22" style="edgeStyle=orthogonalEdgeStyle;rounded=0;orthogonalLoop=1;jettySize=auto;html=1;entryX=0.5;entryY=1;entryDx=0;entryDy=0;" edge="1" parent="1" source="bwMxLQqh5cNuedBowcRA-3" target="bwMxLQqh5cNuedBowcRA-9">
          <mxGeometry relative="1" as="geometry" />
        </mxCell>
        <mxCell id="bwMxLQqh5cNuedBowcRA-27" value="Уведомление&lt;div&gt;клиентов&lt;/div&gt;" style="edgeLabel;html=1;align=center;verticalAlign=middle;resizable=0;points=[];" vertex="1" connectable="0" parent="bwMxLQqh5cNuedBowcRA-22">
          <mxGeometry x="-0.1618" y="-1" relative="1" as="geometry">
            <mxPoint x="-1" y="35" as="offset" />
          </mxGeometry>
        </mxCell>
        <mxCell id="bwMxLQqh5cNuedBowcRA-3" value="Менеджер бэк офиса" style="shape=umlActor;verticalLabelPosition=bottom;verticalAlign=top;html=1;outlineConnect=0;" vertex="1" parent="1">
          <mxGeometry x="465" y="560" width="30" height="60" as="geometry" />
        </mxCell>
        <mxCell id="bwMxLQqh5cNuedBowcRA-34" value="Операции с&amp;nbsp;&lt;div&gt;депозитами\заявками\стаками&lt;div&gt;клиентов&lt;/div&gt;&lt;/div&gt;" style="edgeStyle=orthogonalEdgeStyle;rounded=0;orthogonalLoop=1;jettySize=auto;html=1;exitX=0.5;exitY=0.5;exitDx=0;exitDy=0;exitPerimeter=0;entryX=0;entryY=0.75;entryDx=0;entryDy=0;" edge="1" parent="1" source="bwMxLQqh5cNuedBowcRA-5" target="bwMxLQqh5cNuedBowcRA-6">
          <mxGeometry x="-0.3443" y="-10" relative="1" as="geometry">
            <Array as="points">
              <mxPoint x="250" y="425" />
            </Array>
            <mxPoint as="offset" />
          </mxGeometry>
        </mxCell>
        <mxCell id="bwMxLQqh5cNuedBowcRA-5" value="Менеджер отделения" style="shape=umlActor;verticalLabelPosition=bottom;verticalAlign=top;html=1;outlineConnect=0;" vertex="1" parent="1">
          <mxGeometry x="235" y="550" width="30" height="60" as="geometry" />
        </mxCell>
        <mxCell id="bwMxLQqh5cNuedBowcRA-25" style="edgeStyle=orthogonalEdgeStyle;rounded=0;orthogonalLoop=1;jettySize=auto;html=1;entryX=0;entryY=0.5;entryDx=0;entryDy=0;" edge="1" parent="1" source="bwMxLQqh5cNuedBowcRA-6" target="bwMxLQqh5cNuedBowcRA-9">
          <mxGeometry relative="1" as="geometry" />
        </mxCell>
        <mxCell id="bwMxLQqh5cNuedBowcRA-26" value="Передача данных&amp;nbsp;&lt;div&gt;для клиентов&lt;/div&gt;" style="edgeLabel;html=1;align=center;verticalAlign=middle;resizable=0;points=[];" vertex="1" connectable="0" parent="bwMxLQqh5cNuedBowcRA-25">
          <mxGeometry x="-0.5745" relative="1" as="geometry">
            <mxPoint as="offset" />
          </mxGeometry>
        </mxCell>
        <mxCell id="bwMxLQqh5cNuedBowcRA-6" value="АБС" style="rounded=1;whiteSpace=wrap;html=1;" vertex="1" parent="1">
          <mxGeometry x="420" y="380" width="120" height="60" as="geometry" />
        </mxCell>
        <mxCell id="bwMxLQqh5cNuedBowcRA-31" style="edgeStyle=orthogonalEdgeStyle;rounded=0;orthogonalLoop=1;jettySize=auto;html=1;entryX=0;entryY=0.5;entryDx=0;entryDy=0;" edge="1" parent="1" source="bwMxLQqh5cNuedBowcRA-7" target="bwMxLQqh5cNuedBowcRA-6">
          <mxGeometry relative="1" as="geometry">
            <Array as="points">
              <mxPoint x="250" y="410" />
            </Array>
          </mxGeometry>
        </mxCell>
        <mxCell id="bwMxLQqh5cNuedBowcRA-33" value="Передача запросов&amp;nbsp;&lt;div&gt;депозит\прочих заявок&lt;/div&gt;" style="edgeLabel;html=1;align=center;verticalAlign=middle;resizable=0;points=[];" vertex="1" connectable="0" parent="bwMxLQqh5cNuedBowcRA-31">
          <mxGeometry x="-0.5846" y="3" relative="1" as="geometry">
            <mxPoint x="47" y="-4" as="offset" />
          </mxGeometry>
        </mxCell>
        <mxCell id="bwMxLQqh5cNuedBowcRA-7" value="Сайт" style="rounded=1;whiteSpace=wrap;html=1;" vertex="1" parent="1">
          <mxGeometry x="190" y="260" width="120" height="60" as="geometry" />
        </mxCell>
        <mxCell id="bwMxLQqh5cNuedBowcRA-32" style="edgeStyle=orthogonalEdgeStyle;rounded=0;orthogonalLoop=1;jettySize=auto;html=1;entryX=0;entryY=0.5;entryDx=0;entryDy=0;" edge="1" parent="1" source="bwMxLQqh5cNuedBowcRA-8" target="bwMxLQqh5cNuedBowcRA-6">
          <mxGeometry relative="1" as="geometry">
            <Array as="points">
              <mxPoint x="360" y="410" />
            </Array>
          </mxGeometry>
        </mxCell>
        <mxCell id="bwMxLQqh5cNuedBowcRA-8" value="Интернет-банк" style="rounded=1;whiteSpace=wrap;html=1;" vertex="1" parent="1">
          <mxGeometry x="330" y="260" width="120" height="60" as="geometry" />
        </mxCell>
        <mxCell id="bwMxLQqh5cNuedBowcRA-15" style="edgeStyle=orthogonalEdgeStyle;rounded=0;orthogonalLoop=1;jettySize=auto;html=1;entryX=0.5;entryY=1;entryDx=0;entryDy=0;" edge="1" parent="1" source="bwMxLQqh5cNuedBowcRA-9" target="bwMxLQqh5cNuedBowcRA-11">
          <mxGeometry relative="1" as="geometry">
            <Array as="points">
              <mxPoint x="560" y="220" />
              <mxPoint x="700" y="220" />
            </Array>
          </mxGeometry>
        </mxCell>
        <mxCell id="bwMxLQqh5cNuedBowcRA-38" style="edgeStyle=orthogonalEdgeStyle;rounded=0;orthogonalLoop=1;jettySize=auto;html=1;" edge="1" parent="1" source="bwMxLQqh5cNuedBowcRA-9" target="bwMxLQqh5cNuedBowcRA-1">
          <mxGeometry relative="1" as="geometry">
            <Array as="points">
              <mxPoint x="560" y="160" />
            </Array>
          </mxGeometry>
        </mxCell>
        <mxCell id="bwMxLQqh5cNuedBowcRA-43" value="&lt;span style=&quot;color: rgba(0, 0, 0, 0); font-family: monospace; font-size: 0px; text-align: start; background-color: rgb(251, 251, 251);&quot;&gt;%3CmxGraphModel%3E%3Croot%3E%3CmxCell%20id%3D%220%22%2F%3E%3CmxCell%20id%3D%221%22%20parent%3D%220%22%2F%3E%3CmxCell%20id%3D%222%22%20value%3D%22%D0%A1%D0%BE%D0%B7%D0%B2%D0%BE%D0%BD%20%D0%BF%D0%BE%20%D0%B7%D0%B0%D1%8F%D0%B2%D0%BA%D0%B0%D0%BC%20%D0%BD%D0%B0%20%D0%B4%D0%B5%D0%BF%D0%BE%D0%B7%D0%B8%D1%82%22%20style%3D%22edgeLabel%3Bhtml%3D1%3Balign%3Dcenter%3BverticalAlign%3Dmiddle%3Bresizable%3D0%3Bpoints%3D%5B%5D%3B%22%20vertex%3D%221%22%20connectable%3D%220%22%20parent%3D%221%22%3E%3CmxGeometry%20x%3D%22680.0000000000002%22%20y%3D%2279%22%20as%3D%22geometry%22%2F%3E%3C%2FmxCell%3E%3C%2Froot%3E%3C%2FmxGraphModel%3E&lt;/span&gt;&lt;span style=&quot;color: rgba(0, 0, 0, 0); font-family: monospace; font-size: 0px; text-align: start; background-color: rgb(251, 251, 251);&quot;&gt;%3CmxGraphModel%3E%3Croot%3E%3CmxCell%20id%3D%220%22%2F%3E%3CmxCell%20id%3D%221%22%20parent%3D%220%22%2F%3E%3CmxCell%20id%3D%222%22%20value%3D%22%D0%A1%D0%BE%D0%B7%D0%B2%D0%BE%D0%BD%20%D0%BF%D0%BE%20%D0%B7%D0%B0%D1%8F%D0%B2%D0%BA%D0%B0%D0%BC%20%D0%BD%D0%B0%20%D0%B4%D0%B5%D0%BF%D0%BE%D0%B7%D0%B8%D1%82%22%20style%3D%22edgeLabel%3Bhtml%3D1%3Balign%3Dcenter%3BverticalAlign%3Dmiddle%3Bresizable%3D0%3Bpoints%3D%5B%5D%3B%22%20vertex%3D%221%22%20connectable%3D%220%22%20parent%3D%221%22%3E%3CmxGeometry%20x%3D%22680.0000000000002%22%20y%3D%2279%22%20as%3D%22geometry%22%2F%3E%3C%2FmxCell%3E%3C%2Froot%3E%3C%2FmxGraphModel%3E&lt;/span&gt;" style="edgeLabel;html=1;align=center;verticalAlign=middle;resizable=0;points=[];" vertex="1" connectable="0" parent="bwMxLQqh5cNuedBowcRA-38">
          <mxGeometry x="-0.0852" relative="1" as="geometry">
            <mxPoint as="offset" />
          </mxGeometry>
        </mxCell>
        <mxCell id="bwMxLQqh5cNuedBowcRA-44" value="Созвон по заявкам&amp;nbsp;&lt;div&gt;на депозит&lt;/div&gt;" style="edgeLabel;html=1;align=center;verticalAlign=middle;resizable=0;points=[];" vertex="1" connectable="0" parent="bwMxLQqh5cNuedBowcRA-38">
          <mxGeometry x="-0.1222" y="2" relative="1" as="geometry">
            <mxPoint y="9" as="offset" />
          </mxGeometry>
        </mxCell>
        <mxCell id="bwMxLQqh5cNuedBowcRA-9" value="КЦ" style="rounded=1;whiteSpace=wrap;html=1;" vertex="1" parent="1">
          <mxGeometry x="500" y="260" width="120" height="60" as="geometry" />
        </mxCell>
        <mxCell id="bwMxLQqh5cNuedBowcRA-14" style="edgeStyle=orthogonalEdgeStyle;rounded=0;orthogonalLoop=1;jettySize=auto;html=1;entryX=0.5;entryY=1;entryDx=0;entryDy=0;" edge="1" parent="1" source="bwMxLQqh5cNuedBowcRA-10" target="bwMxLQqh5cNuedBowcRA-11">
          <mxGeometry relative="1" as="geometry">
            <Array as="points">
              <mxPoint x="700" y="240" />
              <mxPoint x="700" y="240" />
            </Array>
          </mxGeometry>
        </mxCell>
        <mxCell id="bwMxLQqh5cNuedBowcRA-42" value="Уведомления клиентов&amp;nbsp;&lt;div&gt;о статусе операций&lt;/div&gt;" style="edgeLabel;html=1;align=center;verticalAlign=middle;resizable=0;points=[];" vertex="1" connectable="0" parent="bwMxLQqh5cNuedBowcRA-14">
          <mxGeometry x="0.28" y="-2" relative="1" as="geometry">
            <mxPoint as="offset" />
          </mxGeometry>
        </mxCell>
        <mxCell id="bwMxLQqh5cNuedBowcRA-10" value="Партнёрский КЦ" style="rounded=1;whiteSpace=wrap;html=1;" vertex="1" parent="1">
          <mxGeometry x="650" y="260" width="120" height="60" as="geometry" />
        </mxCell>
        <mxCell id="bwMxLQqh5cNuedBowcRA-13" style="edgeStyle=orthogonalEdgeStyle;rounded=0;orthogonalLoop=1;jettySize=auto;html=1;dashed=1;" edge="1" parent="1" source="bwMxLQqh5cNuedBowcRA-11" target="bwMxLQqh5cNuedBowcRA-1">
          <mxGeometry relative="1" as="geometry" />
        </mxCell>
        <mxCell id="bwMxLQqh5cNuedBowcRA-11" value="СМС шлюз" style="rounded=1;whiteSpace=wrap;html=1;" vertex="1" parent="1">
          <mxGeometry x="640" y="100" width="120" height="60" as="geometry" />
        </mxCell>
        <mxCell id="bwMxLQqh5cNuedBowcRA-37" style="edgeStyle=orthogonalEdgeStyle;rounded=0;orthogonalLoop=1;jettySize=auto;html=1;entryX=0.5;entryY=0;entryDx=0;entryDy=0;entryPerimeter=0;" edge="1" parent="1" source="bwMxLQqh5cNuedBowcRA-10" target="bwMxLQqh5cNuedBowcRA-1">
          <mxGeometry relative="1" as="geometry">
            <Array as="points">
              <mxPoint x="790" y="290" />
              <mxPoint x="790" y="80" />
              <mxPoint x="465" y="80" />
            </Array>
          </mxGeometry>
        </mxCell>
        <mxCell id="bwMxLQqh5cNuedBowcRA-41" value="Созвон по заявкам на депозит" style="edgeLabel;html=1;align=center;verticalAlign=middle;resizable=0;points=[];" vertex="1" connectable="0" parent="bwMxLQqh5cNuedBowcRA-37">
          <mxGeometry x="0.062" y="-1" relative="1" as="geometry">
            <mxPoint x="-35" as="offset" />
          </mxGeometry>
        </mxCell>
      </root>
    </mxGraphModel>
  </diagram>
</mxfile>
